<svg xmlns="http://www.w3.org/2000/svg" xmlns:xlink="http://www.w3.org/1999/xlink" viewBox="0 0 414.58 90.06"><defs><style>.cls-1{fill:none;stroke-linecap:round;stroke-linejoin:round;stroke-width:8px;stroke:url(#New_Gradient_Swatch_1);}.cls-2{fill:#81efa2;}.cls-3{fill:#fff;stroke:#fff;stroke-miterlimit:10;stroke-width:3px;}</style><linearGradient id="New_Gradient_Swatch_1" y1="42.52" x2="87.46" y2="42.52" gradientUnits="userSpaceOnUse"><stop offset="0" stop-color="#81efa2"/><stop offset="1" stop-color="#4ca6eb"/></linearGradient></defs><g id="Layer_2" data-name="Layer 2"><g id="Layer_1-2" data-name="Layer 1"><path class="cls-1" d="M25.84,81,79.08,56.34a8.56,8.56,0,0,0,0-14.94l-60.63-36C12.18,1.66,4,5.89,4,12.85l.62,53.84"/><circle class="cls-2" cx="5.94" cy="84.86" r="5.2"/><path class="cls-3" d="M113.86,32.52h4.92l8.48,11.66,8.38-11.66h4.94l-10.85,15L142,64.39h-5L127.26,51l-9.65,13.39h-4.9L124.79,47.6Z"/><path class="cls-3" d="M185.43,32.52V64.39h-4.05V58.91a17.51,17.51,0,0,1-5.78,4.72A16.19,16.19,0,0,1,157,60.31a16.5,16.5,0,0,1-4.79-11.94,16.13,16.13,0,0,1,4.84-11.78A15.76,15.76,0,0,1,168.7,31.7a15,15,0,0,1,7.1,1.67,16.08,16.08,0,0,1,5.58,5V32.52ZM169,35.65a12.35,12.35,0,0,0-10.93,6.41,12.92,12.92,0,0,0,0,12.88,12.61,12.61,0,0,0,4.64,4.78A12.12,12.12,0,0,0,169,61.43a12.79,12.79,0,0,0,6.37-1.69,11.93,11.93,0,0,0,4.64-4.6,13,13,0,0,0,1.63-6.52A12.69,12.69,0,0,0,178,39.37,12.07,12.07,0,0,0,169,35.65Z"/><path class="cls-3" d="M198.4,32.52h4.92l8.48,11.66,8.39-11.66h4.93l-10.85,15L226.5,64.39h-5L211.8,51l-9.65,13.39h-4.89L209.34,47.6Z"/><path class="cls-3" d="M253.3,31.7A15.77,15.77,0,0,1,265.51,37a17.12,17.12,0,0,1-.25,23.19,16.86,16.86,0,0,1-23.95,0,17.08,17.08,0,0,1-.25-23.16A15.77,15.77,0,0,1,253.3,31.7Zm0,4a11.83,11.83,0,0,0-8.79,3.78,12.64,12.64,0,0,0-3.68,9.14,13,13,0,0,0,1.68,6.45A11.79,11.79,0,0,0,247,59.69a12.85,12.85,0,0,0,12.53,0,11.88,11.88,0,0,0,4.53-4.61,13.09,13.09,0,0,0,1.67-6.45,12.61,12.61,0,0,0-3.69-9.14A11.84,11.84,0,0,0,253.29,35.71Z"/><path class="cls-3" d="M284.94,32.52H289v5.86a16.37,16.37,0,0,1,5.59-5,14.79,14.79,0,0,1,7.05-1.67,15.74,15.74,0,0,1,11.62,4.89,16.16,16.16,0,0,1,4.83,11.78,16.49,16.49,0,0,1-4.78,11.94,16.13,16.13,0,0,1-18.54,3.32A17.58,17.58,0,0,1,289,58.91V76.05h-4.1Zm16.41,3.13a12,12,0,0,0-9,3.72,12.68,12.68,0,0,0-3.64,9.25,13.14,13.14,0,0,0,1.62,6.52,11.89,11.89,0,0,0,4.65,4.6,12.83,12.83,0,0,0,6.38,1.69,12,12,0,0,0,6.21-1.71,12.61,12.61,0,0,0,4.64-4.78,12.95,12.95,0,0,0,0-12.88,12.32,12.32,0,0,0-10.91-6.41Z"/><path class="cls-3" d="M332.57,20.21h4.11V64.39h-4.11Z"/><path class="cls-3" d="M352.05,32.52h4.1V47.4a31.81,31.81,0,0,0,.59,7.5,8.39,8.39,0,0,0,3.36,4.63,10.21,10.21,0,0,0,5.91,1.7,10,10,0,0,0,5.83-1.66,8.48,8.48,0,0,0,3.3-4.35q.62-1.84.61-7.82V32.52h4.19V48.16q0,6.6-1.53,9.93a11.77,11.77,0,0,1-4.63,5.23,16.9,16.9,0,0,1-15.53,0,11.66,11.66,0,0,1-4.66-5.27c-1-2.26-1.54-5.65-1.54-10.18Z"/><path class="cls-3" d="M412.46,36l-2.64,2.73q-3.29-3.19-6.43-3.2A4.86,4.86,0,0,0,400,36.85a4.09,4.09,0,0,0-1.43,3.08,4.6,4.6,0,0,0,1.18,3,16.47,16.47,0,0,0,4.93,3.37q4.58,2.37,6.23,4.57a8.35,8.35,0,0,1,1.61,5,9,9,0,0,1-2.76,6.65,9.44,9.44,0,0,1-6.89,2.72,12.06,12.06,0,0,1-5.27-1.2,11.36,11.36,0,0,1-4.15-3.31L396,57.77c2.09,2.36,4.31,3.55,6.66,3.55a6,6,0,0,0,4.2-1.59A4.85,4.85,0,0,0,408.59,56a4.78,4.78,0,0,0-1.14-3.13,18.59,18.59,0,0,0-5.17-3.4,16.56,16.56,0,0,1-5.87-4.39,8.29,8.29,0,0,1-1.56-5,8.05,8.05,0,0,1,2.48-6,8.66,8.66,0,0,1,6.27-2.4Q408,31.7,412.46,36Z"/></g></g></svg>