<svg xmlns="http://www.w3.org/2000/svg" viewBox="0 0 304.8 58.84"><defs><style>.cls-1{fill:#fff;stroke:#fff;stroke-miterlimit:10;stroke-width:3px;}</style></defs><g id="Layer_2" data-name="Layer 2"><g id="Layer_1-2" data-name="Layer 1"><path class="cls-1" d="M4.07,13.8H9l8.48,11.67L25.86,13.8h4.93L19.94,28.86,32.17,45.68h-5l-9.7-13.39L7.82,45.68H2.93L15,28.89Z"/><path class="cls-1" d="M75.64,13.8V45.68h-4V40.2a17.67,17.67,0,0,1-5.79,4.72,15.72,15.72,0,0,1-7,1.58,15.55,15.55,0,0,1-11.55-4.91,16.42,16.42,0,0,1-4.79-11.94,16.14,16.14,0,0,1,4.83-11.77A15.77,15.77,0,0,1,58.91,13,15,15,0,0,1,66,14.65a16.4,16.4,0,0,1,5.59,5V13.8ZM59.25,16.94a12.35,12.35,0,0,0-10.93,6.41,12.93,12.93,0,0,0,0,12.87A12.57,12.57,0,0,0,53,41a12.12,12.12,0,0,0,6.25,1.71A12.84,12.84,0,0,0,65.6,41a11.91,11.91,0,0,0,4.64-4.59,13.15,13.15,0,0,0,1.62-6.53,12.66,12.66,0,0,0-3.64-9.24A12.07,12.07,0,0,0,59.25,16.94Z"/><path class="cls-1" d="M88.61,13.8h4.93L102,25.47,110.4,13.8h4.93L104.48,28.86l12.23,16.82h-5L102,32.29,92.37,45.68h-4.9L99.55,28.89Z"/><path class="cls-1" d="M143.51,13a15.78,15.78,0,0,1,12.21,5.34,16.56,16.56,0,0,1,4.41,11.51,16.58,16.58,0,0,1-4.66,11.67,16.84,16.84,0,0,1-23.95,0,16.57,16.57,0,0,1-4.65-11.67,16.53,16.53,0,0,1,4.41-11.48A15.74,15.74,0,0,1,143.51,13Zm0,4a11.83,11.83,0,0,0-8.79,3.78A12.63,12.63,0,0,0,131,29.92a12.92,12.92,0,0,0,1.68,6.44A11.91,11.91,0,0,0,137.24,41a12.9,12.9,0,0,0,12.52,0,11.91,11.91,0,0,0,4.53-4.62A12.92,12.92,0,0,0,156,29.92a12.6,12.6,0,0,0-3.69-9.14A11.84,11.84,0,0,0,143.5,17Z"/><path class="cls-1" d="M175.15,13.8h4.1v5.86a16.67,16.67,0,0,1,5.59-5A14.92,14.92,0,0,1,191.9,13a15.77,15.77,0,0,1,11.62,4.9,16.17,16.17,0,0,1,4.82,11.77,16.46,16.46,0,0,1-4.78,11.94A16.11,16.11,0,0,1,185,44.92a17.71,17.71,0,0,1-5.77-4.72V57.34h-4.1Zm16.41,3.14a12,12,0,0,0-9,3.72A12.66,12.66,0,0,0,179,29.9a13.15,13.15,0,0,0,1.62,6.53A11.8,11.8,0,0,0,185.23,41a12.9,12.9,0,0,0,6.39,1.7A12.06,12.06,0,0,0,197.83,41a12.55,12.55,0,0,0,4.63-4.79,12.93,12.93,0,0,0,0-12.87,12.32,12.32,0,0,0-10.91-6.41Z"/><path class="cls-1" d="M222.79,1.5h4.1V45.68h-4.1Z"/><path class="cls-1" d="M242.27,13.8h4.1V28.69a32,32,0,0,0,.58,7.5,8.43,8.43,0,0,0,3.36,4.63,10.26,10.26,0,0,0,5.92,1.7,10,10,0,0,0,5.82-1.66,8.48,8.48,0,0,0,3.3-4.35q.61-1.84.62-7.82V13.8h4.19V29.45c0,4.39-.52,7.7-1.54,9.93A11.77,11.77,0,0,1,264,44.61a14.61,14.61,0,0,1-7.75,1.89,14.77,14.77,0,0,1-7.78-1.89,11.71,11.71,0,0,1-4.66-5.27q-1.53-3.39-1.53-10.18Z"/><path class="cls-1" d="M302.67,17.29,300,20c-2.2-2.13-4.34-3.2-6.44-3.2a4.86,4.86,0,0,0-3.42,1.32,4.06,4.06,0,0,0-1.42,3.08,4.58,4.58,0,0,0,1.17,3,16.49,16.49,0,0,0,4.93,3.36c3.06,1.59,5.13,3.11,6.23,4.58a8.34,8.34,0,0,1,1.61,5,9,9,0,0,1-2.76,6.66,9.42,9.42,0,0,1-6.89,2.72,12.06,12.06,0,0,1-5.27-1.2A11.55,11.55,0,0,1,283.63,42l2.58-2.93q3.14,3.54,6.66,3.54a6,6,0,0,0,4.2-1.58,4.86,4.86,0,0,0,1.74-3.72,4.77,4.77,0,0,0-1.15-3.13,18.21,18.21,0,0,0-5.17-3.4c-2.87-1.49-4.83-2.95-5.87-4.4a8.23,8.23,0,0,1-1.55-4.95,8,8,0,0,1,2.48-6A8.64,8.64,0,0,1,293.81,13Q298.22,13,302.67,17.29Z"/></g></g></svg>